<svg xmlns="http://www.w3.org/2000/svg" width="48" height="26" fill="none" viewBox="0 0 48 26">
  <g clip-path="url(#a)">
    <path fill="#2979AB" d="M18.3 0h7.431a.77.77 0 0 1-.063.211l-.025.052-.027.055-.028.058-.06.125-.157.327-.032.066c-.085.178-.17.357-.252.536l-.037.08-.074.16-.205.438-.042.09-.085.182-.19.405-.105.225-.042.09-.105.225-.043.09-.105.225a3875.203 3875.203 0 0 0-.657 1.4 153.65 153.65 0 0 0-.67 1.433 84.876 84.876 0 0 0-.127.272l-.19.406-.105.224-.042.09-4.146 8.86-.042.09-.105.225-.188.402-.469.998a153.65 153.65 0 0 0-.67 1.433l-.021.045-.107.227-.19.406-.104.224-.043.09-1.788 3.823-.042.09-.105.224-.194.414-.089.19-.06.131-.313.663H6.18a.772.772 0 0 1 .09-.264l.027-.056a28.246 28.246 0 0 0 .088-.183l.158-.328.031-.066c.081-.169.16-.339.24-.51l.067-.146c.01-.024.022-.048.034-.073a88.577 88.577 0 0 1 .329-.705l.212-.454.022-.046a273.391 273.391 0 0 0 .625-1.34l.02-.045c.058-.12.114-.242.17-.363l.15-.317.02-.045a332.46 332.46 0 0 0 .639-1.368l.266-.57.029-.062.058-.125c.16-.347.322-.694.486-1.04.146-.308.29-.617.434-.927.235-.506.472-1.012.709-1.518l.148-.317.021-.046a380.519 380.519 0 0 0 .625-1.34l.021-.045.17-.363.149-.317.021-.045a323.5 323.5 0 0 0 .638-1.368c.09-.19.178-.38.266-.57l.03-.062c.018-.042.038-.084.057-.125.161-.347.323-.694.486-1.04.146-.308.29-.617.435-.927a529.364 529.364 0 0 1 .857-1.835l.02-.046a329.727 329.727 0 0 0 .639-1.367l.266-.57.029-.062.058-.126c.16-.347.323-.693.486-1.038l.434-.928c.235-.507.472-1.013.709-1.518l.148-.318.021-.044a317.645 317.645 0 0 0 .4-.858l.032-.07L18.3 0Zm10.125 0h7.43a.77.77 0 0 1-.063.211l-.025.052-.027.055-.028.058-.06.125-.157.327a44.11 44.11 0 0 0-.284.602l-.037.08-.074.16-.205.438a36.808 36.808 0 0 1-.127.272l-.19.405-.105.225-.042.09-.105.225-.043.09-.105.225-.188.402c-.155.333-.312.666-.468.998a153.65 153.65 0 0 0-.67 1.433l-.022.045-.106.227-.19.406-.105.224-.042.09-4.146 8.86-.042.09-.105.225-.188.402c-.155.333-.312.666-.469.998a167.484 167.484 0 0 0-.67 1.433l-.021.045-.106.227-.19.406-.105.224-.042.09-1.789 3.823-.042.09-.105.224-.193.414-.09.19-.06.131-.313.663H16.33c.022-.113.058-.201.108-.303l.026-.054.056-.116.149-.31.03-.064c.092-.192.18-.386.268-.58.138-.305.28-.608.424-.91.126-.263.25-.527.37-.793.147-.327.3-.652.455-.976l.055-.114.026-.056c.12-.25.236-.503.353-.754a633.327 633.327 0 0 0 .459-.986c.184-.398.369-.795.555-1.192l.385-.828c.135-.291.272-.583.409-.873.111-.237.22-.474.328-.712.15-.33.304-.658.46-.985.146-.307.29-.615.434-.924l.184-.395.274-.591.556-1.193c.13-.275.257-.55.385-.827.136-.292.272-.583.409-.873.111-.237.22-.474.328-.712.15-.33.304-.658.46-.985.147-.307.29-.615.434-.924l.184-.395.274-.591.556-1.192c.13-.276.257-.552.385-.828.136-.291.272-.583.409-.873.111-.237.22-.474.328-.712.15-.33.304-.658.46-.985.146-.307.29-.614.433-.923L28.425 0Zm8.152 1.607h.048c.18.368.356.738.527 1.11a88.346 88.346 0 0 0 .261.56l.107.23.19.406.106.224.02.045.128.271a458.34 458.34 0 0 1 .752 1.612l.021.046.229.488.08.172.021.044.265.568.028.062.059.125c.16.347.322.693.486 1.039.12.253.239.507.357.761a224.89 224.89 0 0 0 .608 1.303l.45.965.232.495.063.135.021.045.127.271a456.15 456.15 0 0 1 .774 1.658 433.047 433.047 0 0 0 .31.66l.02.044.264.568c.01.02.02.04.029.062l.058.125c.161.347.323.693.486 1.039.12.253.24.507.357.761a208.494 208.494 0 0 0 .608 1.303 422.618 422.618 0 0 0 .683 1.46l.063.135.02.045.128.271.468 1.003c.136.294.274.588.412.881l.231.496.063.135.021.044.127.272a402.77 402.77 0 0 1 .74 1.584l.065.139c.06.128.12.257.182.385l.028.058.049.101A.38.38 0 0 1 48 26h-7.407c-.33-.685-.33-.685-.442-.928l-.078-.17-.04-.086-.21-.447a338.694 338.694 0 0 1-.647-1.388l-.021-.045-.149-.318-.17-.363-.02-.045a323.5 323.5 0 0 1-.64-1.367 197.1 197.1 0 0 1-.265-.571.89.89 0 0 1-.029-.062l-.117-.252c-.14-.302-.282-.603-.424-.904-.123-.26-.242-.52-.36-.78-.137-.302-.279-.6-.421-.898-.13-.27-.256-.541-.38-.814a45.038 45.038 0 0 0-.441-.945l-.03-.062a83.915 83.915 0 0 1-.633-1.353 263.754 263.754 0 0 0-.604-1.294l-.029-.061-.117-.252a106 106 0 0 0-.424-.905 45.468 45.468 0 0 1-.36-.78 24.864 24.864 0 0 0-.287-.614l-.032-.067a49.688 49.688 0 0 0-.157-.321l-.057-.118-.027-.054a.462.462 0 0 1-.06-.286c.022-.061.022-.061.053-.123l.035-.07.038-.077.08-.163.042-.084c.06-.124.118-.248.176-.373l.035-.076.075-.164.256-.555.029-.06c.119-.259.239-.516.36-.773l.377-.811.458-.99.03-.063.362-.778.376-.808a642.536 642.536 0 0 1 .496-1.07c.125-.269.25-.537.377-.805ZM0 12.76h7.407c.22.466.439.932.651 1.4.102.224.205.447.308.669l.108.234.028.06.367.795.025.054.046.101c.038.083.038.083.078.165a.542.542 0 0 1-.077.319 1540.966 1540.966 0 0 0-.077.16c-.048.097-.094.194-.141.292l-.03.06c-.091.19-.179.383-.266.575-.12.268-.245.535-.37.8-.136.285-.268.57-.398.857-.117.259-.237.517-.359.775-.114.241-.226.484-.337.728-.13.287-.263.573-.398.858a47.2 47.2 0 0 0-.35.755c-.134.295-.27.59-.409.882l-.044.094-.022.046c-.119.254-.236.508-.353.762h-.048c-.17-.35-.34-.702-.503-1.056a98.43 98.43 0 0 0-.315-.67c-.13-.275-.258-.55-.386-.826l-.311-.662a156.754 156.754 0 0 1-.67-1.43l-.02-.045-.37-.787a152.185 152.185 0 0 1-.643-1.375l-.021-.044-.37-.787a126.88 126.88 0 0 1-.36-.77l-.312-.662a155.752 155.752 0 0 1-.657-1.406l-.044-.093a35.97 35.97 0 0 0-.21-.444l-.031-.065a19.766 19.766 0 0 0-.056-.115C0 12.84 0 12.84 0 12.76Z"/>
  </g>
  <defs>
    <clipPath id="a">
      <path fill="#fff" d="M0 0h48v26H0z"/>
    </clipPath>
  </defs>
</svg>
